# xmcd CD database file
#
# Track frame offsets:
#	150
#	26205
#	55417
#	93272
#	122328
#	152864
#	182357
#	209132
#	244911
#
# Disc length: 3722 seconds
#
# Revision: 1
# Processed by: cddbd v1.5.2PL0 Copyright (c) Steve Scherf et al.
# Submitted via: CDex 1.70beta2
#
DISCID=790e8809
DTITLE=Hikari Ichikawa Group - Move On - PCCY-30157
DYEAR=2010
DGENRE=Classical
TTITLE0=やみくろ
TTITLE1=A Story of Rabbit
TTITLE2=Everything Happens to Me
TTITLE3=アウターリミッツ
TTITLE4=年度末
TTITLE5=梅雨あけ
TTITLE6=新年度
TTITLE7=Small, Good Thing
TTITLE8=Inspiration
EXTD=YEAR: 2010
EXTT0=
EXTT1=
EXTT2=
EXTT3=
EXTT4=
EXTT5=
EXTT6=
EXTT7=
EXTT8=
PLAYORDER=
